<svg enable-background="new 0 0 45 45" viewBox="0 0 45 45" xmlns="http://www.w3.org/2000/svg" xmlns:xlink="http://www.w3.org/1999/xlink"><clipPath id="a"><path d="m0 36h36v-36h-36z"/></clipPath><g clip-path="url(#a)" transform="matrix(1.25 0 0 -1.25 0 45)"><path d="m0 0c-7.562-4.875-20.062.437-18.375 8.062 1.479 6.684 9.419 4.763 11.225 3.861 1.805-.902.713 3.889-3.475 5.326-5.673 1.948-12.618 1.536-14.812-8.249-1.5-6.687 1.437-16.062 12.718-16.187 11.282-.125 12.719 7.187 12.719 7.187" fill="#269" transform="translate(33.398 12.322)"/><path d="m0 0c0 2.146-2.754 2.334-4 1.119-2.994-2.919-7.402-4.012-13.298-2.861-10.25 2-10.342 14.013-3.333 17.441 3.791 1.855 8.288-.341 9.999-1.654 1.488-1.144 4.334-2.661 4.185-.752-.319 4.062-8.28 12.761-18.946 7.261-10.667-5.5-10.595-17.913-10.595-20.163v-7.25c0-2.209 1.814-3.948 4.023-3.948h28c2.209 0 3.977 1.739 3.977 3.948 0 0-.004 6.853-.012 6.859" fill="#55acee" transform="translate(35.988 10.807)"/></g></svg>